<?xml version="1.0" encoding="UTF-8" standalone="no"?>
<!DOCTYPE svg PUBLIC "-//W3C//DTD SVG 1.1//EN"
 "http://www.w3.org/Graphics/SVG/1.1/DTD/svg11.dtd">
<!-- Generated by graphviz version 12.2.0 (20241103.1931)
 -->
<!-- Title: Tree Pages: 1 -->
<svg width="1281pt" height="447pt"
 viewBox="0.00 0.00 1281.38 447.25" xmlns="http://www.w3.org/2000/svg" xmlns:xlink="http://www.w3.org/1999/xlink">
<g id="graph0" class="graph" transform="scale(1 1) rotate(0) translate(4 443.25)">
<title>Tree</title>
<polygon fill="white" stroke="none" points="-4,4 -4,-443.25 1277.38,-443.25 1277.38,4 -4,4"/>
<!-- 0 -->
<g id="node1" class="node">
<title>0</title>
<path fill="#eeab7a" stroke="black" d="M693.75,-439.25C693.75,-439.25 539,-439.25 539,-439.25 533,-439.25 527,-433.25 527,-427.25 527,-427.25 527,-364.5 527,-364.5 527,-358.5 533,-352.5 539,-352.5 539,-352.5 693.75,-352.5 693.75,-352.5 699.75,-352.5 705.75,-358.5 705.75,-364.5 705.75,-364.5 705.75,-427.25 705.75,-427.25 705.75,-433.25 699.75,-439.25 693.75,-439.25"/>
<text text-anchor="start" x="565" y="-421.95" font-family="Helvetica,sans-Serif" font-size="14.00">relationship ≤ 0.5</text>
<text text-anchor="start" x="569.12" y="-406.2" font-family="Helvetica,sans-Serif" font-size="14.00">entropy = 0.808</text>
<text text-anchor="start" x="564.25" y="-390.45" font-family="Helvetica,sans-Serif" font-size="14.00">samples = 36140</text>
<text text-anchor="start" x="551.12" y="-374.7" font-family="Helvetica,sans-Serif" font-size="14.00">value = [27178, 8962]</text>
<text text-anchor="start" x="535" y="-358.95" font-family="Helvetica,sans-Serif" font-size="14.00">class = Lower or Equal 50k</text>
</g>
<!-- 1 -->
<g id="node2" class="node">
<title>1</title>
<path fill="#fbebdf" stroke="black" d="M552.75,-316.5C552.75,-316.5 398,-316.5 398,-316.5 392,-316.5 386,-310.5 386,-304.5 386,-304.5 386,-241.75 386,-241.75 386,-235.75 392,-229.75 398,-229.75 398,-229.75 552.75,-229.75 552.75,-229.75 558.75,-229.75 564.75,-235.75 564.75,-241.75 564.75,-241.75 564.75,-304.5 564.75,-304.5 564.75,-310.5 558.75,-316.5 552.75,-316.5"/>
<text text-anchor="start" x="409.75" y="-299.2" font-family="Helvetica,sans-Serif" font-size="14.00">education&#45;num ≤ 12.5</text>
<text text-anchor="start" x="428.12" y="-283.45" font-family="Helvetica,sans-Serif" font-size="14.00">entropy = 0.994</text>
<text text-anchor="start" x="423.25" y="-267.7" font-family="Helvetica,sans-Serif" font-size="14.00">samples = 14944</text>
<text text-anchor="start" x="402.62" y="-251.95" font-family="Helvetica,sans-Serif" font-size="14.00">value = [8132.0, 6812.0]</text>
<text text-anchor="start" x="394" y="-236.2" font-family="Helvetica,sans-Serif" font-size="14.00">class = Lower or Equal 50k</text>
</g>
<!-- 0&#45;&gt;1 -->
<g id="edge1" class="edge">
<title>0&#45;&gt;1</title>
<path fill="none" stroke="black" d="M566.66,-352.3C556.03,-343.19 544.7,-333.49 533.77,-324.13"/>
<polygon fill="black" stroke="black" points="536.13,-321.55 526.26,-317.7 531.58,-326.87 536.13,-321.55"/>
<text text-anchor="middle" x="527.04" y="-336.22" font-family="Helvetica,sans-Serif" font-size="14.00">True</text>
</g>
<!-- 8 -->
<g id="node9" class="node">
<title>8</title>
<path fill="#e88f4f" stroke="black" d="M884.75,-316.5C884.75,-316.5 730,-316.5 730,-316.5 724,-316.5 718,-310.5 718,-304.5 718,-304.5 718,-241.75 718,-241.75 718,-235.75 724,-229.75 730,-229.75 730,-229.75 884.75,-229.75 884.75,-229.75 890.75,-229.75 896.75,-235.75 896.75,-241.75 896.75,-241.75 896.75,-304.5 896.75,-304.5 896.75,-310.5 890.75,-316.5 884.75,-316.5"/>
<text text-anchor="start" x="744.75" y="-299.2" font-family="Helvetica,sans-Serif" font-size="14.00">capital&#45;gain ≤ 7055.5</text>
<text text-anchor="start" x="760.12" y="-283.45" font-family="Helvetica,sans-Serif" font-size="14.00">entropy = 0.474</text>
<text text-anchor="start" x="755.62" y="-267.7" font-family="Helvetica,sans-Serif" font-size="14.00">samples = 21196</text>
<text text-anchor="start" x="742.12" y="-251.95" font-family="Helvetica,sans-Serif" font-size="14.00">value = [19046, 2150]</text>
<text text-anchor="start" x="726" y="-236.2" font-family="Helvetica,sans-Serif" font-size="14.00">class = Lower or Equal 50k</text>
</g>
<!-- 0&#45;&gt;8 -->
<g id="edge8" class="edge">
<title>0&#45;&gt;8</title>
<path fill="none" stroke="black" d="M683.98,-352.13C699,-342.64 715.03,-332.51 730.39,-322.79"/>
<polygon fill="black" stroke="black" points="732,-325.92 738.58,-317.62 728.26,-320 732,-325.92"/>
<text text-anchor="middle" x="734.36" y="-335.77" font-family="Helvetica,sans-Serif" font-size="14.00">False</text>
</g>
<!-- 2 -->
<g id="node3" class="node">
<title>2</title>
<path fill="#f2c19e" stroke="black" d="M332.75,-193.75C332.75,-193.75 178,-193.75 178,-193.75 172,-193.75 166,-187.75 166,-181.75 166,-181.75 166,-119 166,-119 166,-113 172,-107 178,-107 178,-107 332.75,-107 332.75,-107 338.75,-107 344.75,-113 344.75,-119 344.75,-119 344.75,-181.75 344.75,-181.75 344.75,-187.75 338.75,-193.75 332.75,-193.75"/>
<text text-anchor="start" x="192.75" y="-176.45" font-family="Helvetica,sans-Serif" font-size="14.00">capital&#45;gain ≤ 5095.5</text>
<text text-anchor="start" x="208.12" y="-160.7" font-family="Helvetica,sans-Serif" font-size="14.00">entropy = 0.923</text>
<text text-anchor="start" x="203.25" y="-144.95" font-family="Helvetica,sans-Serif" font-size="14.00">samples = 10442</text>
<text text-anchor="start" x="182.62" y="-129.2" font-family="Helvetica,sans-Serif" font-size="14.00">value = [6914.0, 3528.0]</text>
<text text-anchor="start" x="174" y="-113.45" font-family="Helvetica,sans-Serif" font-size="14.00">class = Lower or Equal 50k</text>
</g>
<!-- 1&#45;&gt;2 -->
<g id="edge2" class="edge">
<title>1&#45;&gt;2</title>
<path fill="none" stroke="black" d="M397.5,-229.38C379.88,-219.71 361.04,-209.37 343.04,-199.49"/>
<polygon fill="black" stroke="black" points="344.92,-196.53 334.47,-194.79 341.55,-202.67 344.92,-196.53"/>
</g>
<!-- 5 -->
<g id="node6" class="node">
<title>5</title>
<path fill="#82c1ef" stroke="black" d="M534,-193.75C534,-193.75 416.75,-193.75 416.75,-193.75 410.75,-193.75 404.75,-187.75 404.75,-181.75 404.75,-181.75 404.75,-119 404.75,-119 404.75,-113 410.75,-107 416.75,-107 416.75,-107 534,-107 534,-107 540,-107 546,-113 546,-119 546,-119 546,-181.75 546,-181.75 546,-187.75 540,-193.75 534,-193.75"/>
<text text-anchor="start" x="412.75" y="-176.45" font-family="Helvetica,sans-Serif" font-size="14.00">capital&#45;gain ≤ 5095.5</text>
<text text-anchor="start" x="428.12" y="-160.7" font-family="Helvetica,sans-Serif" font-size="14.00">entropy = 0.842</text>
<text text-anchor="start" x="427" y="-144.95" font-family="Helvetica,sans-Serif" font-size="14.00">samples = 4502</text>
<text text-anchor="start" x="413.88" y="-129.2" font-family="Helvetica,sans-Serif" font-size="14.00">value = [1218, 3284]</text>
<text text-anchor="start" x="424.38" y="-113.45" font-family="Helvetica,sans-Serif" font-size="14.00">class = Over 50k</text>
</g>
<!-- 1&#45;&gt;5 -->
<g id="edge5" class="edge">
<title>1&#45;&gt;5</title>
<path fill="none" stroke="black" d="M475.38,-229.55C475.38,-221.71 475.38,-213.42 475.38,-205.29"/>
<polygon fill="black" stroke="black" points="478.88,-205.48 475.38,-195.48 471.88,-205.48 478.88,-205.48"/>
</g>
<!-- 3 -->
<g id="node4" class="node">
<title>3</title>
<path fill="#f0b890" stroke="black" d="M166.75,-71C166.75,-71 12,-71 12,-71 6,-71 0,-65 0,-59 0,-59 0,-12 0,-12 0,-6 6,0 12,0 12,0 166.75,0 166.75,0 172.75,0 178.75,-6 178.75,-12 178.75,-12 178.75,-59 178.75,-59 178.75,-65 172.75,-71 166.75,-71"/>
<text text-anchor="start" x="42.12" y="-53.7" font-family="Helvetica,sans-Serif" font-size="14.00">entropy = 0.887</text>
<text text-anchor="start" x="41" y="-37.95" font-family="Helvetica,sans-Serif" font-size="14.00">samples = 9938</text>
<text text-anchor="start" x="16.62" y="-22.2" font-family="Helvetica,sans-Serif" font-size="14.00">value = [6906.0, 3032.0]</text>
<text text-anchor="start" x="8" y="-6.45" font-family="Helvetica,sans-Serif" font-size="14.00">class = Lower or Equal 50k</text>
</g>
<!-- 2&#45;&gt;3 -->
<g id="edge3" class="edge">
<title>2&#45;&gt;3</title>
<path fill="none" stroke="black" d="M192.62,-106.7C178.67,-97.22 163.91,-87.18 150.04,-77.75"/>
<polygon fill="black" stroke="black" points="152.1,-74.92 141.86,-72.19 148.16,-80.7 152.1,-74.92"/>
</g>
<!-- 4 -->
<g id="node5" class="node">
<title>4</title>
<path fill="#3c9fe5" stroke="black" d="M302.38,-71C302.38,-71 208.38,-71 208.38,-71 202.38,-71 196.38,-65 196.38,-59 196.38,-59 196.38,-12 196.38,-12 196.38,-6 202.38,0 208.38,0 208.38,0 302.38,0 302.38,0 308.38,0 314.38,-6 314.38,-12 314.38,-12 314.38,-59 314.38,-59 314.38,-65 308.38,-71 302.38,-71"/>
<text text-anchor="start" x="208.5" y="-53.7" font-family="Helvetica,sans-Serif" font-size="14.00">entropy = 0.118</text>
<text text-anchor="start" x="210.75" y="-37.95" font-family="Helvetica,sans-Serif" font-size="14.00">samples = 504</text>
<text text-anchor="start" x="208.88" y="-22.2" font-family="Helvetica,sans-Serif" font-size="14.00">value = [8, 496]</text>
<text text-anchor="start" x="204.38" y="-6.45" font-family="Helvetica,sans-Serif" font-size="14.00">class = Over 50k</text>
</g>
<!-- 2&#45;&gt;4 -->
<g id="edge4" class="edge">
<title>2&#45;&gt;4</title>
<path fill="none" stroke="black" d="M255.38,-106.7C255.38,-98.82 255.38,-90.55 255.38,-82.57"/>
<polygon fill="black" stroke="black" points="258.88,-82.67 255.38,-72.67 251.88,-82.67 258.88,-82.67"/>
</g>
<!-- 6 -->
<g id="node7" class="node">
<title>6</title>
<path fill="#96cbf1" stroke="black" d="M459.88,-71C459.88,-71 344.88,-71 344.88,-71 338.88,-71 332.88,-65 332.88,-59 332.88,-59 332.88,-12 332.88,-12 332.88,-6 338.88,0 344.88,0 344.88,0 459.88,0 459.88,0 465.88,0 471.88,-6 471.88,-12 471.88,-12 471.88,-59 471.88,-59 471.88,-65 465.88,-71 459.88,-71"/>
<text text-anchor="start" x="355.12" y="-53.7" font-family="Helvetica,sans-Serif" font-size="14.00">entropy = 0.905</text>
<text text-anchor="start" x="354" y="-37.95" font-family="Helvetica,sans-Serif" font-size="14.00">samples = 3793</text>
<text text-anchor="start" x="340.88" y="-22.2" font-family="Helvetica,sans-Serif" font-size="14.00">value = [1216, 2577]</text>
<text text-anchor="start" x="351.38" y="-6.45" font-family="Helvetica,sans-Serif" font-size="14.00">class = Over 50k</text>
</g>
<!-- 5&#45;&gt;6 -->
<g id="edge6" class="edge">
<title>5&#45;&gt;6</title>
<path fill="none" stroke="black" d="M447.78,-106.7C442.26,-98.17 436.46,-89.2 430.91,-80.62"/>
<polygon fill="black" stroke="black" points="433.98,-78.92 425.61,-72.43 428.1,-82.73 433.98,-78.92"/>
</g>
<!-- 7 -->
<g id="node8" class="node">
<title>7</title>
<path fill="#3a9de5" stroke="black" d="M596.38,-71C596.38,-71 502.38,-71 502.38,-71 496.38,-71 490.38,-65 490.38,-59 490.38,-59 490.38,-12 490.38,-12 490.38,-6 496.38,0 502.38,0 502.38,0 596.38,0 596.38,0 602.38,0 608.38,-6 608.38,-12 608.38,-12 608.38,-59 608.38,-59 608.38,-65 602.38,-71 596.38,-71"/>
<text text-anchor="start" x="502.12" y="-53.7" font-family="Helvetica,sans-Serif" font-size="14.00">entropy = 0.028</text>
<text text-anchor="start" x="504.75" y="-37.95" font-family="Helvetica,sans-Serif" font-size="14.00">samples = 709</text>
<text text-anchor="start" x="502.88" y="-22.2" font-family="Helvetica,sans-Serif" font-size="14.00">value = [2, 707]</text>
<text text-anchor="start" x="498.38" y="-6.45" font-family="Helvetica,sans-Serif" font-size="14.00">class = Over 50k</text>
</g>
<!-- 5&#45;&gt;7 -->
<g id="edge7" class="edge">
<title>5&#45;&gt;7</title>
<path fill="none" stroke="black" d="M503.35,-106.7C508.94,-98.17 514.83,-89.2 520.45,-80.62"/>
<polygon fill="black" stroke="black" points="523.27,-82.71 525.82,-72.42 517.41,-78.87 523.27,-82.71"/>
</g>
<!-- 9 -->
<g id="node10" class="node">
<title>9</title>
<path fill="#e78c4b" stroke="black" d="M884.75,-193.75C884.75,-193.75 730,-193.75 730,-193.75 724,-193.75 718,-187.75 718,-181.75 718,-181.75 718,-119 718,-119 718,-113 724,-107 730,-107 730,-107 884.75,-107 884.75,-107 890.75,-107 896.75,-113 896.75,-119 896.75,-119 896.75,-181.75 896.75,-181.75 896.75,-187.75 890.75,-193.75 884.75,-193.75"/>
<text text-anchor="start" x="756" y="-176.45" font-family="Helvetica,sans-Serif" font-size="14.00">relationship ≤ 4.5</text>
<text text-anchor="start" x="760.12" y="-160.7" font-family="Helvetica,sans-Serif" font-size="14.00">entropy = 0.408</text>
<text text-anchor="start" x="755.25" y="-144.95" font-family="Helvetica,sans-Serif" font-size="14.00">samples = 20719</text>
<text text-anchor="start" x="742.12" y="-129.2" font-family="Helvetica,sans-Serif" font-size="14.00">value = [19030, 1689]</text>
<text text-anchor="start" x="726" y="-113.45" font-family="Helvetica,sans-Serif" font-size="14.00">class = Lower or Equal 50k</text>
</g>
<!-- 8&#45;&gt;9 -->
<g id="edge9" class="edge">
<title>8&#45;&gt;9</title>
<path fill="none" stroke="black" d="M807.38,-229.55C807.38,-221.71 807.38,-213.42 807.38,-205.29"/>
<polygon fill="black" stroke="black" points="810.88,-205.48 807.38,-195.48 803.88,-205.48 810.88,-205.48"/>
</g>
<!-- 12 -->
<g id="node13" class="node">
<title>12</title>
<path fill="#40a0e6" stroke="black" d="M1137,-193.75C1137,-193.75 1019.75,-193.75 1019.75,-193.75 1013.75,-193.75 1007.75,-187.75 1007.75,-181.75 1007.75,-181.75 1007.75,-119 1007.75,-119 1007.75,-113 1013.75,-107 1019.75,-107 1019.75,-107 1137,-107 1137,-107 1143,-107 1149,-113 1149,-119 1149,-119 1149,-181.75 1149,-181.75 1149,-187.75 1143,-193.75 1137,-193.75"/>
<text text-anchor="start" x="1015.75" y="-176.45" font-family="Helvetica,sans-Serif" font-size="14.00">capital&#45;gain ≤ 8296.0</text>
<text text-anchor="start" x="1031.12" y="-160.7" font-family="Helvetica,sans-Serif" font-size="14.00">entropy = 0.212</text>
<text text-anchor="start" x="1033.75" y="-144.95" font-family="Helvetica,sans-Serif" font-size="14.00">samples = 477</text>
<text text-anchor="start" x="1028.12" y="-129.2" font-family="Helvetica,sans-Serif" font-size="14.00">value = [16, 461]</text>
<text text-anchor="start" x="1027.38" y="-113.45" font-family="Helvetica,sans-Serif" font-size="14.00">class = Over 50k</text>
</g>
<!-- 8&#45;&gt;12 -->
<g id="edge12" class="edge">
<title>8&#45;&gt;12</title>
<path fill="none" stroke="black" d="M897.24,-232.08C929.49,-217.71 965.65,-201.6 997.13,-187.58"/>
<polygon fill="black" stroke="black" points="998.52,-190.79 1006.23,-183.52 995.67,-184.39 998.52,-190.79"/>
</g>
<!-- 10 -->
<g id="node11" class="node">
<title>10</title>
<path fill="#e68844" stroke="black" d="M792.75,-71C792.75,-71 638,-71 638,-71 632,-71 626,-65 626,-59 626,-59 626,-12 626,-12 626,-6 632,0 638,0 638,0 792.75,0 792.75,0 798.75,0 804.75,-6 804.75,-12 804.75,-12 804.75,-59 804.75,-59 804.75,-65 798.75,-71 792.75,-71"/>
<text text-anchor="start" x="668.12" y="-53.7" font-family="Helvetica,sans-Serif" font-size="14.00">entropy = 0.292</text>
<text text-anchor="start" x="663.25" y="-37.95" font-family="Helvetica,sans-Serif" font-size="14.00">samples = 19180</text>
<text text-anchor="start" x="653.88" y="-22.2" font-family="Helvetica,sans-Serif" font-size="14.00">value = [18194, 986]</text>
<text text-anchor="start" x="634" y="-6.45" font-family="Helvetica,sans-Serif" font-size="14.00">class = Lower or Equal 50k</text>
</g>
<!-- 9&#45;&gt;10 -->
<g id="edge10" class="edge">
<title>9&#45;&gt;10</title>
<path fill="none" stroke="black" d="M772.59,-106.7C765.49,-97.99 758.01,-88.81 750.89,-80.07"/>
<polygon fill="black" stroke="black" points="753.61,-77.87 744.58,-72.33 748.18,-82.29 753.61,-77.87"/>
</g>
<!-- 11 -->
<g id="node12" class="node">
<title>11</title>
<path fill="#fbebe0" stroke="black" d="M989.75,-71C989.75,-71 835,-71 835,-71 829,-71 823,-65 823,-59 823,-59 823,-12 823,-12 823,-6 829,0 835,0 835,0 989.75,0 989.75,0 995.75,0 1001.75,-6 1001.75,-12 1001.75,-12 1001.75,-59 1001.75,-59 1001.75,-65 995.75,-71 989.75,-71"/>
<text text-anchor="start" x="865.12" y="-53.7" font-family="Helvetica,sans-Serif" font-size="14.00">entropy = 0.995</text>
<text text-anchor="start" x="864" y="-37.95" font-family="Helvetica,sans-Serif" font-size="14.00">samples = 1539</text>
<text text-anchor="start" x="858.38" y="-22.2" font-family="Helvetica,sans-Serif" font-size="14.00">value = [836, 703]</text>
<text text-anchor="start" x="831" y="-6.45" font-family="Helvetica,sans-Serif" font-size="14.00">class = Lower or Equal 50k</text>
</g>
<!-- 9&#45;&gt;11 -->
<g id="edge11" class="edge">
<title>9&#45;&gt;11</title>
<path fill="none" stroke="black" d="M847.07,-106.7C855.34,-97.81 864.07,-88.43 872.36,-79.52"/>
<polygon fill="black" stroke="black" points="874.86,-81.97 879.1,-72.27 869.73,-77.2 874.86,-81.97"/>
</g>
<!-- 13 -->
<g id="node14" class="node">
<title>13</title>
<path fill="#54abe9" stroke="black" d="M1125.38,-71C1125.38,-71 1031.38,-71 1031.38,-71 1025.38,-71 1019.38,-65 1019.38,-59 1019.38,-59 1019.38,-12 1019.38,-12 1019.38,-6 1025.38,0 1031.38,0 1031.38,0 1125.38,0 1125.38,0 1131.38,0 1137.38,-6 1137.38,-12 1137.38,-12 1137.38,-59 1137.38,-59 1137.38,-65 1131.38,-71 1125.38,-71"/>
<text text-anchor="start" x="1031.12" y="-53.7" font-family="Helvetica,sans-Serif" font-size="14.00">entropy = 0.535</text>
<text text-anchor="start" x="1037.5" y="-37.95" font-family="Helvetica,sans-Serif" font-size="14.00">samples = 82</text>
<text text-anchor="start" x="1031.88" y="-22.2" font-family="Helvetica,sans-Serif" font-size="14.00">value = [10, 72]</text>
<text text-anchor="start" x="1027.38" y="-6.45" font-family="Helvetica,sans-Serif" font-size="14.00">class = Over 50k</text>
</g>
<!-- 12&#45;&gt;13 -->
<g id="edge13" class="edge">
<title>12&#45;&gt;13</title>
<path fill="none" stroke="black" d="M1078.38,-106.7C1078.38,-98.82 1078.38,-90.55 1078.38,-82.57"/>
<polygon fill="black" stroke="black" points="1081.88,-82.67 1078.38,-72.67 1074.88,-82.67 1081.88,-82.67"/>
</g>
<!-- 14 -->
<g id="node15" class="node">
<title>14</title>
<path fill="#3c9fe5" stroke="black" d="M1261.38,-71C1261.38,-71 1167.38,-71 1167.38,-71 1161.38,-71 1155.38,-65 1155.38,-59 1155.38,-59 1155.38,-12 1155.38,-12 1155.38,-6 1161.38,0 1167.38,0 1167.38,0 1261.38,0 1261.38,0 1267.38,0 1273.38,-6 1273.38,-12 1273.38,-12 1273.38,-59 1273.38,-59 1273.38,-65 1267.38,-71 1261.38,-71"/>
<text text-anchor="start" x="1167.5" y="-53.7" font-family="Helvetica,sans-Serif" font-size="14.00">entropy = 0.114</text>
<text text-anchor="start" x="1169.75" y="-37.95" font-family="Helvetica,sans-Serif" font-size="14.00">samples = 395</text>
<text text-anchor="start" x="1167.88" y="-22.2" font-family="Helvetica,sans-Serif" font-size="14.00">value = [6, 389]</text>
<text text-anchor="start" x="1163.38" y="-6.45" font-family="Helvetica,sans-Serif" font-size="14.00">class = Over 50k</text>
</g>
<!-- 12&#45;&gt;14 -->
<g id="edge14" class="edge">
<title>12&#45;&gt;14</title>
<path fill="none" stroke="black" d="M1129.79,-106.7C1140.95,-97.44 1152.74,-87.65 1163.87,-78.42"/>
<polygon fill="black" stroke="black" points="1165.99,-81.2 1171.45,-72.12 1161.52,-75.82 1165.99,-81.2"/>
</g>
</g>
</svg>
