<?xml version="1.0" encoding="UTF-8" standalone="no"?>
<!DOCTYPE svg PUBLIC "-//W3C//DTD SVG 1.1//EN"
 "http://www.w3.org/Graphics/SVG/1.1/DTD/svg11.dtd">
<!-- Generated by graphviz version 12.2.0 (20241103.1931)
 -->
<!-- Title: Tree Pages: 1 -->
<svg width="2503pt" height="570pt"
 viewBox="0.00 0.00 2503.38 570.00" xmlns="http://www.w3.org/2000/svg" xmlns:xlink="http://www.w3.org/1999/xlink">
<g id="graph0" class="graph" transform="scale(1 1) rotate(0) translate(4 566)">
<title>Tree</title>
<polygon fill="white" stroke="none" points="-4,4 -4,-566 2499.38,-566 2499.38,4 -4,4"/>
<!-- 0 -->
<g id="node1" class="node">
<title>0</title>
<path fill="#eeab7a" stroke="black" d="M1355.75,-562C1355.75,-562 1201,-562 1201,-562 1195,-562 1189,-556 1189,-550 1189,-550 1189,-487.25 1189,-487.25 1189,-481.25 1195,-475.25 1201,-475.25 1201,-475.25 1355.75,-475.25 1355.75,-475.25 1361.75,-475.25 1367.75,-481.25 1367.75,-487.25 1367.75,-487.25 1367.75,-550 1367.75,-550 1367.75,-556 1361.75,-562 1355.75,-562"/>
<text text-anchor="start" x="1227" y="-544.7" font-family="Helvetica,sans-Serif" font-size="14.00">relationship ≤ 0.5</text>
<text text-anchor="start" x="1231.12" y="-528.95" font-family="Helvetica,sans-Serif" font-size="14.00">entropy = 0.808</text>
<text text-anchor="start" x="1226.25" y="-513.2" font-family="Helvetica,sans-Serif" font-size="14.00">samples = 36140</text>
<text text-anchor="start" x="1213.12" y="-497.45" font-family="Helvetica,sans-Serif" font-size="14.00">value = [27178, 8962]</text>
<text text-anchor="start" x="1197" y="-481.7" font-family="Helvetica,sans-Serif" font-size="14.00">class = Lower or Equal 50k</text>
</g>
<!-- 1 -->
<g id="node2" class="node">
<title>1</title>
<path fill="#fbebdf" stroke="black" d="M1032.75,-439.25C1032.75,-439.25 878,-439.25 878,-439.25 872,-439.25 866,-433.25 866,-427.25 866,-427.25 866,-364.5 866,-364.5 866,-358.5 872,-352.5 878,-352.5 878,-352.5 1032.75,-352.5 1032.75,-352.5 1038.75,-352.5 1044.75,-358.5 1044.75,-364.5 1044.75,-364.5 1044.75,-427.25 1044.75,-427.25 1044.75,-433.25 1038.75,-439.25 1032.75,-439.25"/>
<text text-anchor="start" x="889.75" y="-421.95" font-family="Helvetica,sans-Serif" font-size="14.00">education&#45;num ≤ 12.5</text>
<text text-anchor="start" x="908.12" y="-406.2" font-family="Helvetica,sans-Serif" font-size="14.00">entropy = 0.994</text>
<text text-anchor="start" x="903.25" y="-390.45" font-family="Helvetica,sans-Serif" font-size="14.00">samples = 14944</text>
<text text-anchor="start" x="882.62" y="-374.7" font-family="Helvetica,sans-Serif" font-size="14.00">value = [8132.0, 6812.0]</text>
<text text-anchor="start" x="874" y="-358.95" font-family="Helvetica,sans-Serif" font-size="14.00">class = Lower or Equal 50k</text>
</g>
<!-- 0&#45;&gt;1 -->
<g id="edge1" class="edge">
<title>0&#45;&gt;1</title>
<path fill="none" stroke="black" d="M1188.83,-484.15C1147.52,-468.71 1098.32,-450.31 1055.76,-434.4"/>
<polygon fill="black" stroke="black" points="1057.1,-431.17 1046.51,-430.95 1054.65,-437.73 1057.1,-431.17"/>
<text text-anchor="middle" x="1055.46" y="-447.74" font-family="Helvetica,sans-Serif" font-size="14.00">True</text>
</g>
<!-- 16 -->
<g id="node17" class="node">
<title>16</title>
<path fill="#e88f4f" stroke="black" d="M1698.75,-439.25C1698.75,-439.25 1544,-439.25 1544,-439.25 1538,-439.25 1532,-433.25 1532,-427.25 1532,-427.25 1532,-364.5 1532,-364.5 1532,-358.5 1538,-352.5 1544,-352.5 1544,-352.5 1698.75,-352.5 1698.75,-352.5 1704.75,-352.5 1710.75,-358.5 1710.75,-364.5 1710.75,-364.5 1710.75,-427.25 1710.75,-427.25 1710.75,-433.25 1704.75,-439.25 1698.75,-439.25"/>
<text text-anchor="start" x="1558.75" y="-421.95" font-family="Helvetica,sans-Serif" font-size="14.00">capital&#45;gain ≤ 7055.5</text>
<text text-anchor="start" x="1574.12" y="-406.2" font-family="Helvetica,sans-Serif" font-size="14.00">entropy = 0.474</text>
<text text-anchor="start" x="1569.62" y="-390.45" font-family="Helvetica,sans-Serif" font-size="14.00">samples = 21196</text>
<text text-anchor="start" x="1556.12" y="-374.7" font-family="Helvetica,sans-Serif" font-size="14.00">value = [19046, 2150]</text>
<text text-anchor="start" x="1540" y="-358.95" font-family="Helvetica,sans-Serif" font-size="14.00">class = Lower or Equal 50k</text>
</g>
<!-- 0&#45;&gt;16 -->
<g id="edge16" class="edge">
<title>0&#45;&gt;16</title>
<path fill="none" stroke="black" d="M1368.05,-486.06C1414.92,-469.56 1472.44,-449.31 1520.82,-432.27"/>
<polygon fill="black" stroke="black" points="1521.93,-435.59 1530.2,-428.97 1519.61,-428.99 1521.93,-435.59"/>
<text text-anchor="middle" x="1520.83" y="-445.59" font-family="Helvetica,sans-Serif" font-size="14.00">False</text>
</g>
<!-- 2 -->
<g id="node3" class="node">
<title>2</title>
<path fill="#f2c19e" stroke="black" d="M599.75,-316.5C599.75,-316.5 445,-316.5 445,-316.5 439,-316.5 433,-310.5 433,-304.5 433,-304.5 433,-241.75 433,-241.75 433,-235.75 439,-229.75 445,-229.75 445,-229.75 599.75,-229.75 599.75,-229.75 605.75,-229.75 611.75,-235.75 611.75,-241.75 611.75,-241.75 611.75,-304.5 611.75,-304.5 611.75,-310.5 605.75,-316.5 599.75,-316.5"/>
<text text-anchor="start" x="459.75" y="-299.2" font-family="Helvetica,sans-Serif" font-size="14.00">capital&#45;gain ≤ 5095.5</text>
<text text-anchor="start" x="475.12" y="-283.45" font-family="Helvetica,sans-Serif" font-size="14.00">entropy = 0.923</text>
<text text-anchor="start" x="470.25" y="-267.7" font-family="Helvetica,sans-Serif" font-size="14.00">samples = 10442</text>
<text text-anchor="start" x="449.62" y="-251.95" font-family="Helvetica,sans-Serif" font-size="14.00">value = [6914.0, 3528.0]</text>
<text text-anchor="start" x="441" y="-236.2" font-family="Helvetica,sans-Serif" font-size="14.00">class = Lower or Equal 50k</text>
</g>
<!-- 1&#45;&gt;2 -->
<g id="edge2" class="edge">
<title>1&#45;&gt;2</title>
<path fill="none" stroke="black" d="M865.66,-369.86C794.83,-350.1 696.04,-322.56 622.62,-302.08"/>
<polygon fill="black" stroke="black" points="624.01,-298.83 613.44,-299.52 622.13,-305.58 624.01,-298.83"/>
</g>
<!-- 9 -->
<g id="node10" class="node">
<title>9</title>
<path fill="#82c1ef" stroke="black" d="M1014,-316.5C1014,-316.5 896.75,-316.5 896.75,-316.5 890.75,-316.5 884.75,-310.5 884.75,-304.5 884.75,-304.5 884.75,-241.75 884.75,-241.75 884.75,-235.75 890.75,-229.75 896.75,-229.75 896.75,-229.75 1014,-229.75 1014,-229.75 1020,-229.75 1026,-235.75 1026,-241.75 1026,-241.75 1026,-304.5 1026,-304.5 1026,-310.5 1020,-316.5 1014,-316.5"/>
<text text-anchor="start" x="892.75" y="-299.2" font-family="Helvetica,sans-Serif" font-size="14.00">capital&#45;gain ≤ 5095.5</text>
<text text-anchor="start" x="908.12" y="-283.45" font-family="Helvetica,sans-Serif" font-size="14.00">entropy = 0.842</text>
<text text-anchor="start" x="907" y="-267.7" font-family="Helvetica,sans-Serif" font-size="14.00">samples = 4502</text>
<text text-anchor="start" x="893.88" y="-251.95" font-family="Helvetica,sans-Serif" font-size="14.00">value = [1218, 3284]</text>
<text text-anchor="start" x="904.38" y="-236.2" font-family="Helvetica,sans-Serif" font-size="14.00">class = Over 50k</text>
</g>
<!-- 1&#45;&gt;9 -->
<g id="edge9" class="edge">
<title>1&#45;&gt;9</title>
<path fill="none" stroke="black" d="M955.38,-352.3C955.38,-344.46 955.38,-336.17 955.38,-328.04"/>
<polygon fill="black" stroke="black" points="958.88,-328.23 955.38,-318.23 951.88,-328.23 958.88,-328.23"/>
</g>
<!-- 3 -->
<g id="node4" class="node">
<title>3</title>
<path fill="#f0b890" stroke="black" d="M363.75,-193.75C363.75,-193.75 209,-193.75 209,-193.75 203,-193.75 197,-187.75 197,-181.75 197,-181.75 197,-119 197,-119 197,-113 203,-107 209,-107 209,-107 363.75,-107 363.75,-107 369.75,-107 375.75,-113 375.75,-119 375.75,-119 375.75,-181.75 375.75,-181.75 375.75,-187.75 369.75,-193.75 363.75,-193.75"/>
<text text-anchor="start" x="224.5" y="-176.45" font-family="Helvetica,sans-Serif" font-size="14.00">education&#45;num ≤ 7.5</text>
<text text-anchor="start" x="239.12" y="-160.7" font-family="Helvetica,sans-Serif" font-size="14.00">entropy = 0.887</text>
<text text-anchor="start" x="238" y="-144.95" font-family="Helvetica,sans-Serif" font-size="14.00">samples = 9938</text>
<text text-anchor="start" x="213.62" y="-129.2" font-family="Helvetica,sans-Serif" font-size="14.00">value = [6906.0, 3032.0]</text>
<text text-anchor="start" x="205" y="-113.45" font-family="Helvetica,sans-Serif" font-size="14.00">class = Lower or Equal 50k</text>
</g>
<!-- 2&#45;&gt;3 -->
<g id="edge3" class="edge">
<title>2&#45;&gt;3</title>
<path fill="none" stroke="black" d="M438.84,-229.38C419.76,-219.62 399.35,-209.18 379.88,-199.22"/>
<polygon fill="black" stroke="black" points="381.64,-196.19 371.15,-194.75 378.46,-202.42 381.64,-196.19"/>
</g>
<!-- 6 -->
<g id="node7" class="node">
<title>6</title>
<path fill="#3c9fe5" stroke="black" d="M569.38,-193.75C569.38,-193.75 475.38,-193.75 475.38,-193.75 469.38,-193.75 463.38,-187.75 463.38,-181.75 463.38,-181.75 463.38,-119 463.38,-119 463.38,-113 469.38,-107 475.38,-107 475.38,-107 569.38,-107 569.38,-107 575.38,-107 581.38,-113 581.38,-119 581.38,-119 581.38,-181.75 581.38,-181.75 581.38,-187.75 575.38,-193.75 569.38,-193.75"/>
<text text-anchor="start" x="490.5" y="-176.45" font-family="Helvetica,sans-Serif" font-size="14.00">age ≤ 63.5</text>
<text text-anchor="start" x="475.5" y="-160.7" font-family="Helvetica,sans-Serif" font-size="14.00">entropy = 0.118</text>
<text text-anchor="start" x="477.75" y="-144.95" font-family="Helvetica,sans-Serif" font-size="14.00">samples = 504</text>
<text text-anchor="start" x="475.88" y="-129.2" font-family="Helvetica,sans-Serif" font-size="14.00">value = [8, 496]</text>
<text text-anchor="start" x="471.38" y="-113.45" font-family="Helvetica,sans-Serif" font-size="14.00">class = Over 50k</text>
</g>
<!-- 2&#45;&gt;6 -->
<g id="edge6" class="edge">
<title>2&#45;&gt;6</title>
<path fill="none" stroke="black" d="M522.38,-229.55C522.38,-221.71 522.38,-213.42 522.38,-205.29"/>
<polygon fill="black" stroke="black" points="525.88,-205.48 522.38,-195.48 518.88,-205.48 525.88,-205.48"/>
</g>
<!-- 4 -->
<g id="node5" class="node">
<title>4</title>
<path fill="#e88f4f" stroke="black" d="M166.75,-71C166.75,-71 12,-71 12,-71 6,-71 0,-65 0,-59 0,-59 0,-12 0,-12 0,-6 6,0 12,0 12,0 166.75,0 166.75,0 172.75,0 178.75,-6 178.75,-12 178.75,-12 178.75,-59 178.75,-59 178.75,-65 172.75,-71 166.75,-71"/>
<text text-anchor="start" x="42.12" y="-53.7" font-family="Helvetica,sans-Serif" font-size="14.00">entropy = 0.468</text>
<text text-anchor="start" x="41" y="-37.95" font-family="Helvetica,sans-Serif" font-size="14.00">samples = 1497</text>
<text text-anchor="start" x="31.62" y="-22.2" font-family="Helvetica,sans-Serif" font-size="14.00">value = [1348, 149]</text>
<text text-anchor="start" x="8" y="-6.45" font-family="Helvetica,sans-Serif" font-size="14.00">class = Lower or Equal 50k</text>
</g>
<!-- 3&#45;&gt;4 -->
<g id="edge4" class="edge">
<title>3&#45;&gt;4</title>
<path fill="none" stroke="black" d="M211.62,-106.54C194.69,-96.84 176.77,-86.58 160.03,-76.98"/>
<polygon fill="black" stroke="black" points="162.05,-74.1 151.63,-72.17 158.57,-80.18 162.05,-74.1"/>
</g>
<!-- 5 -->
<g id="node6" class="node">
<title>5</title>
<path fill="#f2c2a0" stroke="black" d="M363.75,-71C363.75,-71 209,-71 209,-71 203,-71 197,-65 197,-59 197,-59 197,-12 197,-12 197,-6 203,0 209,0 209,0 363.75,0 363.75,0 369.75,0 375.75,-6 375.75,-12 375.75,-12 375.75,-59 375.75,-59 375.75,-65 369.75,-71 363.75,-71"/>
<text text-anchor="start" x="239.12" y="-53.7" font-family="Helvetica,sans-Serif" font-size="14.00">entropy = 0.926</text>
<text text-anchor="start" x="238" y="-37.95" font-family="Helvetica,sans-Serif" font-size="14.00">samples = 8441</text>
<text text-anchor="start" x="224.88" y="-22.2" font-family="Helvetica,sans-Serif" font-size="14.00">value = [5558, 2883]</text>
<text text-anchor="start" x="205" y="-6.45" font-family="Helvetica,sans-Serif" font-size="14.00">class = Lower or Equal 50k</text>
</g>
<!-- 3&#45;&gt;5 -->
<g id="edge5" class="edge">
<title>3&#45;&gt;5</title>
<path fill="none" stroke="black" d="M286.38,-106.7C286.38,-98.82 286.38,-90.55 286.38,-82.57"/>
<polygon fill="black" stroke="black" points="289.88,-82.67 286.38,-72.67 282.88,-82.67 289.88,-82.67"/>
</g>
<!-- 7 -->
<g id="node8" class="node">
<title>7</title>
<path fill="#399de5" stroke="black" d="M499.38,-71C499.38,-71 405.38,-71 405.38,-71 399.38,-71 393.38,-65 393.38,-59 393.38,-59 393.38,-12 393.38,-12 393.38,-6 399.38,0 405.38,0 405.38,0 499.38,0 499.38,0 505.38,0 511.38,-6 511.38,-12 511.38,-12 511.38,-59 511.38,-59 511.38,-65 505.38,-71 499.38,-71"/>
<text text-anchor="start" x="405.12" y="-53.7" font-family="Helvetica,sans-Serif" font-size="14.00">entropy = 0.022</text>
<text text-anchor="start" x="407.75" y="-37.95" font-family="Helvetica,sans-Serif" font-size="14.00">samples = 461</text>
<text text-anchor="start" x="405.88" y="-22.2" font-family="Helvetica,sans-Serif" font-size="14.00">value = [1, 460]</text>
<text text-anchor="start" x="401.38" y="-6.45" font-family="Helvetica,sans-Serif" font-size="14.00">class = Over 50k</text>
</g>
<!-- 6&#45;&gt;7 -->
<g id="edge7" class="edge">
<title>6&#45;&gt;7</title>
<path fill="none" stroke="black" d="M495.91,-106.7C490.68,-98.27 485.18,-89.39 479.91,-80.9"/>
<polygon fill="black" stroke="black" points="482.91,-79.1 474.67,-72.44 476.96,-82.79 482.91,-79.1"/>
</g>
<!-- 8 -->
<g id="node9" class="node">
<title>8</title>
<path fill="#5fb0ea" stroke="black" d="M641.38,-71C641.38,-71 541.38,-71 541.38,-71 535.38,-71 529.38,-65 529.38,-59 529.38,-59 529.38,-12 529.38,-12 529.38,-6 535.38,0 541.38,0 541.38,0 641.38,0 641.38,0 647.38,0 653.38,-6 653.38,-12 653.38,-12 653.38,-59 653.38,-59 653.38,-65 647.38,-71 641.38,-71"/>
<text text-anchor="start" x="544.12" y="-53.7" font-family="Helvetica,sans-Serif" font-size="14.00">entropy = 0.641</text>
<text text-anchor="start" x="550.5" y="-37.95" font-family="Helvetica,sans-Serif" font-size="14.00">samples = 43</text>
<text text-anchor="start" x="537.38" y="-22.2" font-family="Helvetica,sans-Serif" font-size="14.00">value = [7.0, 36.0]</text>
<text text-anchor="start" x="540.38" y="-6.45" font-family="Helvetica,sans-Serif" font-size="14.00">class = Over 50k</text>
</g>
<!-- 6&#45;&gt;8 -->
<g id="edge8" class="edge">
<title>6&#45;&gt;8</title>
<path fill="none" stroke="black" d="M548.46,-106.7C553.62,-98.27 559.04,-89.39 564.23,-80.9"/>
<polygon fill="black" stroke="black" points="567.17,-82.81 569.4,-72.45 561.2,-79.16 567.17,-82.81"/>
</g>
<!-- 10 -->
<g id="node11" class="node">
<title>10</title>
<path fill="#96cbf1" stroke="black" d="M940.25,-193.75C940.25,-193.75 824.5,-193.75 824.5,-193.75 818.5,-193.75 812.5,-187.75 812.5,-181.75 812.5,-181.75 812.5,-119 812.5,-119 812.5,-113 818.5,-107 824.5,-107 824.5,-107 940.25,-107 940.25,-107 946.25,-107 952.25,-113 952.25,-119 952.25,-119 952.25,-181.75 952.25,-181.75 952.25,-187.75 946.25,-193.75 940.25,-193.75"/>
<text text-anchor="start" x="820.5" y="-176.45" font-family="Helvetica,sans-Serif" font-size="14.00">capital&#45;loss ≤ 1782.5</text>
<text text-anchor="start" x="835.12" y="-160.7" font-family="Helvetica,sans-Serif" font-size="14.00">entropy = 0.905</text>
<text text-anchor="start" x="834" y="-144.95" font-family="Helvetica,sans-Serif" font-size="14.00">samples = 3793</text>
<text text-anchor="start" x="820.88" y="-129.2" font-family="Helvetica,sans-Serif" font-size="14.00">value = [1216, 2577]</text>
<text text-anchor="start" x="831.38" y="-113.45" font-family="Helvetica,sans-Serif" font-size="14.00">class = Over 50k</text>
</g>
<!-- 9&#45;&gt;10 -->
<g id="edge10" class="edge">
<title>9&#45;&gt;10</title>
<path fill="none" stroke="black" d="M929.64,-229.55C924.57,-221.17 919.19,-212.28 913.96,-203.61"/>
<polygon fill="black" stroke="black" points="917.08,-202.01 908.91,-195.26 911.09,-205.63 917.08,-202.01"/>
</g>
<!-- 13 -->
<g id="node14" class="node">
<title>13</title>
<path fill="#3a9de5" stroke="black" d="M1076.38,-193.75C1076.38,-193.75 982.38,-193.75 982.38,-193.75 976.38,-193.75 970.38,-187.75 970.38,-181.75 970.38,-181.75 970.38,-119 970.38,-119 970.38,-113 976.38,-107 982.38,-107 982.38,-107 1076.38,-107 1076.38,-107 1082.38,-107 1088.38,-113 1088.38,-119 1088.38,-119 1088.38,-181.75 1088.38,-181.75 1088.38,-187.75 1082.38,-193.75 1076.38,-193.75"/>
<text text-anchor="start" x="997.5" y="-176.45" font-family="Helvetica,sans-Serif" font-size="14.00">age ≤ 62.5</text>
<text text-anchor="start" x="982.12" y="-160.7" font-family="Helvetica,sans-Serif" font-size="14.00">entropy = 0.028</text>
<text text-anchor="start" x="984.75" y="-144.95" font-family="Helvetica,sans-Serif" font-size="14.00">samples = 709</text>
<text text-anchor="start" x="982.88" y="-129.2" font-family="Helvetica,sans-Serif" font-size="14.00">value = [2, 707]</text>
<text text-anchor="start" x="978.38" y="-113.45" font-family="Helvetica,sans-Serif" font-size="14.00">class = Over 50k</text>
</g>
<!-- 9&#45;&gt;13 -->
<g id="edge13" class="edge">
<title>9&#45;&gt;13</title>
<path fill="none" stroke="black" d="M981.46,-229.55C986.6,-221.17 992.05,-212.28 997.36,-203.61"/>
<polygon fill="black" stroke="black" points="1000.24,-205.62 1002.48,-195.26 994.27,-201.96 1000.24,-205.62"/>
</g>
<!-- 11 -->
<g id="node12" class="node">
<title>11</title>
<path fill="#a6d3f3" stroke="black" d="M798.88,-71C798.88,-71 683.88,-71 683.88,-71 677.88,-71 671.88,-65 671.88,-59 671.88,-59 671.88,-12 671.88,-12 671.88,-6 677.88,0 683.88,0 683.88,0 798.88,0 798.88,0 804.88,0 810.88,-6 810.88,-12 810.88,-12 810.88,-59 810.88,-59 810.88,-65 804.88,-71 798.88,-71"/>
<text text-anchor="start" x="694.12" y="-53.7" font-family="Helvetica,sans-Serif" font-size="14.00">entropy = 0.938</text>
<text text-anchor="start" x="693" y="-37.95" font-family="Helvetica,sans-Serif" font-size="14.00">samples = 3398</text>
<text text-anchor="start" x="679.88" y="-22.2" font-family="Helvetica,sans-Serif" font-size="14.00">value = [1204, 2194]</text>
<text text-anchor="start" x="690.38" y="-6.45" font-family="Helvetica,sans-Serif" font-size="14.00">class = Over 50k</text>
</g>
<!-- 10&#45;&gt;11 -->
<g id="edge11" class="edge">
<title>10&#45;&gt;11</title>
<path fill="none" stroke="black" d="M829.07,-106.7C817.39,-97.35 805.03,-87.46 793.4,-78.15"/>
<polygon fill="black" stroke="black" points="795.84,-75.62 785.85,-72.1 791.47,-81.09 795.84,-75.62"/>
</g>
<!-- 12 -->
<g id="node13" class="node">
<title>12</title>
<path fill="#3fa0e6" stroke="black" d="M935.38,-71C935.38,-71 841.38,-71 841.38,-71 835.38,-71 829.38,-65 829.38,-59 829.38,-59 829.38,-12 829.38,-12 829.38,-6 835.38,0 841.38,0 841.38,0 935.38,0 935.38,0 941.38,0 947.38,-6 947.38,-12 947.38,-12 947.38,-59 947.38,-59 947.38,-65 941.38,-71 935.38,-71"/>
<text text-anchor="start" x="841.12" y="-53.7" font-family="Helvetica,sans-Serif" font-size="14.00">entropy = 0.196</text>
<text text-anchor="start" x="843.75" y="-37.95" font-family="Helvetica,sans-Serif" font-size="14.00">samples = 395</text>
<text text-anchor="start" x="838.12" y="-22.2" font-family="Helvetica,sans-Serif" font-size="14.00">value = [12, 383]</text>
<text text-anchor="start" x="837.38" y="-6.45" font-family="Helvetica,sans-Serif" font-size="14.00">class = Over 50k</text>
</g>
<!-- 10&#45;&gt;12 -->
<g id="edge12" class="edge">
<title>10&#45;&gt;12</title>
<path fill="none" stroke="black" d="M884.64,-106.7C885.06,-98.82 885.5,-90.55 885.93,-82.57"/>
<polygon fill="black" stroke="black" points="889.42,-82.84 886.45,-72.67 882.43,-82.47 889.42,-82.84"/>
</g>
<!-- 14 -->
<g id="node15" class="node">
<title>14</title>
<path fill="#399de5" stroke="black" d="M1071.38,-71C1071.38,-71 977.38,-71 977.38,-71 971.38,-71 965.38,-65 965.38,-59 965.38,-59 965.38,-12 965.38,-12 965.38,-6 971.38,0 977.38,0 977.38,0 1071.38,0 1071.38,0 1077.38,0 1083.38,-6 1083.38,-12 1083.38,-12 1083.38,-59 1083.38,-59 1083.38,-65 1077.38,-71 1071.38,-71"/>
<text text-anchor="start" x="984.62" y="-53.7" font-family="Helvetica,sans-Serif" font-size="14.00">entropy = 0.0</text>
<text text-anchor="start" x="979.75" y="-37.95" font-family="Helvetica,sans-Serif" font-size="14.00">samples = 636</text>
<text text-anchor="start" x="977.88" y="-22.2" font-family="Helvetica,sans-Serif" font-size="14.00">value = [0, 636]</text>
<text text-anchor="start" x="973.38" y="-6.45" font-family="Helvetica,sans-Serif" font-size="14.00">class = Over 50k</text>
</g>
<!-- 13&#45;&gt;14 -->
<g id="edge14" class="edge">
<title>13&#45;&gt;14</title>
<path fill="none" stroke="black" d="M1027.48,-106.7C1027.14,-98.82 1026.77,-90.55 1026.42,-82.57"/>
<polygon fill="black" stroke="black" points="1029.92,-82.5 1025.98,-72.67 1022.92,-82.81 1029.92,-82.5"/>
</g>
<!-- 15 -->
<g id="node16" class="node">
<title>15</title>
<path fill="#3fa0e6" stroke="black" d="M1207.38,-71C1207.38,-71 1113.38,-71 1113.38,-71 1107.38,-71 1101.38,-65 1101.38,-59 1101.38,-59 1101.38,-12 1101.38,-12 1101.38,-6 1107.38,0 1113.38,0 1113.38,0 1207.38,0 1207.38,0 1213.38,0 1219.38,-6 1219.38,-12 1219.38,-12 1219.38,-59 1219.38,-59 1219.38,-65 1213.38,-71 1207.38,-71"/>
<text text-anchor="start" x="1113.12" y="-53.7" font-family="Helvetica,sans-Serif" font-size="14.00">entropy = 0.181</text>
<text text-anchor="start" x="1119.5" y="-37.95" font-family="Helvetica,sans-Serif" font-size="14.00">samples = 73</text>
<text text-anchor="start" x="1117.62" y="-22.2" font-family="Helvetica,sans-Serif" font-size="14.00">value = [2, 71]</text>
<text text-anchor="start" x="1109.38" y="-6.45" font-family="Helvetica,sans-Serif" font-size="14.00">class = Over 50k</text>
</g>
<!-- 13&#45;&gt;15 -->
<g id="edge15" class="edge">
<title>13&#45;&gt;15</title>
<path fill="none" stroke="black" d="M1078.9,-106.7C1089.65,-97.44 1101.01,-87.65 1111.72,-78.42"/>
<polygon fill="black" stroke="black" points="1113.71,-81.32 1119.01,-72.15 1109.15,-76.02 1113.71,-81.32"/>
</g>
<!-- 17 -->
<g id="node18" class="node">
<title>17</title>
<path fill="#e78c4b" stroke="black" d="M1698.75,-316.5C1698.75,-316.5 1544,-316.5 1544,-316.5 1538,-316.5 1532,-310.5 1532,-304.5 1532,-304.5 1532,-241.75 1532,-241.75 1532,-235.75 1538,-229.75 1544,-229.75 1544,-229.75 1698.75,-229.75 1698.75,-229.75 1704.75,-229.75 1710.75,-235.75 1710.75,-241.75 1710.75,-241.75 1710.75,-304.5 1710.75,-304.5 1710.75,-310.5 1704.75,-316.5 1698.75,-316.5"/>
<text text-anchor="start" x="1570" y="-299.2" font-family="Helvetica,sans-Serif" font-size="14.00">relationship ≤ 4.5</text>
<text text-anchor="start" x="1574.12" y="-283.45" font-family="Helvetica,sans-Serif" font-size="14.00">entropy = 0.408</text>
<text text-anchor="start" x="1569.25" y="-267.7" font-family="Helvetica,sans-Serif" font-size="14.00">samples = 20719</text>
<text text-anchor="start" x="1556.12" y="-251.95" font-family="Helvetica,sans-Serif" font-size="14.00">value = [19030, 1689]</text>
<text text-anchor="start" x="1540" y="-236.2" font-family="Helvetica,sans-Serif" font-size="14.00">class = Lower or Equal 50k</text>
</g>
<!-- 16&#45;&gt;17 -->
<g id="edge17" class="edge">
<title>16&#45;&gt;17</title>
<path fill="none" stroke="black" d="M1621.38,-352.3C1621.38,-344.46 1621.38,-336.17 1621.38,-328.04"/>
<polygon fill="black" stroke="black" points="1624.88,-328.23 1621.38,-318.23 1617.88,-328.23 1624.88,-328.23"/>
</g>
<!-- 24 -->
<g id="node25" class="node">
<title>24</title>
<path fill="#40a0e6" stroke="black" d="M2147,-316.5C2147,-316.5 2029.75,-316.5 2029.75,-316.5 2023.75,-316.5 2017.75,-310.5 2017.75,-304.5 2017.75,-304.5 2017.75,-241.75 2017.75,-241.75 2017.75,-235.75 2023.75,-229.75 2029.75,-229.75 2029.75,-229.75 2147,-229.75 2147,-229.75 2153,-229.75 2159,-235.75 2159,-241.75 2159,-241.75 2159,-304.5 2159,-304.5 2159,-310.5 2153,-316.5 2147,-316.5"/>
<text text-anchor="start" x="2025.75" y="-299.2" font-family="Helvetica,sans-Serif" font-size="14.00">capital&#45;gain ≤ 8296.0</text>
<text text-anchor="start" x="2041.12" y="-283.45" font-family="Helvetica,sans-Serif" font-size="14.00">entropy = 0.212</text>
<text text-anchor="start" x="2043.75" y="-267.7" font-family="Helvetica,sans-Serif" font-size="14.00">samples = 477</text>
<text text-anchor="start" x="2038.12" y="-251.95" font-family="Helvetica,sans-Serif" font-size="14.00">value = [16, 461]</text>
<text text-anchor="start" x="2037.38" y="-236.2" font-family="Helvetica,sans-Serif" font-size="14.00">class = Over 50k</text>
</g>
<!-- 16&#45;&gt;24 -->
<g id="edge24" class="edge">
<title>16&#45;&gt;24</title>
<path fill="none" stroke="black" d="M1711.14,-371.66C1796.5,-349.59 1923.81,-316.67 2006.48,-295.3"/>
<polygon fill="black" stroke="black" points="2007.31,-298.7 2016.12,-292.81 2005.56,-291.92 2007.31,-298.7"/>
</g>
<!-- 18 -->
<g id="node19" class="node">
<title>18</title>
<path fill="#e68844" stroke="black" d="M1600.75,-193.75C1600.75,-193.75 1446,-193.75 1446,-193.75 1440,-193.75 1434,-187.75 1434,-181.75 1434,-181.75 1434,-119 1434,-119 1434,-113 1440,-107 1446,-107 1446,-107 1600.75,-107 1600.75,-107 1606.75,-107 1612.75,-113 1612.75,-119 1612.75,-119 1612.75,-181.75 1612.75,-181.75 1612.75,-187.75 1606.75,-193.75 1600.75,-193.75"/>
<text text-anchor="start" x="1457.75" y="-176.45" font-family="Helvetica,sans-Serif" font-size="14.00">education&#45;num ≤ 12.5</text>
<text text-anchor="start" x="1476.12" y="-160.7" font-family="Helvetica,sans-Serif" font-size="14.00">entropy = 0.292</text>
<text text-anchor="start" x="1471.25" y="-144.95" font-family="Helvetica,sans-Serif" font-size="14.00">samples = 19180</text>
<text text-anchor="start" x="1461.88" y="-129.2" font-family="Helvetica,sans-Serif" font-size="14.00">value = [18194, 986]</text>
<text text-anchor="start" x="1442" y="-113.45" font-family="Helvetica,sans-Serif" font-size="14.00">class = Lower or Equal 50k</text>
</g>
<!-- 17&#45;&gt;18 -->
<g id="edge18" class="edge">
<title>17&#45;&gt;18</title>
<path fill="none" stroke="black" d="M1586.82,-229.55C1579.8,-220.9 1572.34,-211.7 1565.09,-202.78"/>
<polygon fill="black" stroke="black" points="1567.92,-200.7 1558.9,-195.14 1562.48,-205.11 1567.92,-200.7"/>
</g>
<!-- 21 -->
<g id="node22" class="node">
<title>21</title>
<path fill="#fbebe0" stroke="black" d="M1797.75,-193.75C1797.75,-193.75 1643,-193.75 1643,-193.75 1637,-193.75 1631,-187.75 1631,-181.75 1631,-181.75 1631,-119 1631,-119 1631,-113 1637,-107 1643,-107 1643,-107 1797.75,-107 1797.75,-107 1803.75,-107 1809.75,-113 1809.75,-119 1809.75,-119 1809.75,-181.75 1809.75,-181.75 1809.75,-187.75 1803.75,-193.75 1797.75,-193.75"/>
<text text-anchor="start" x="1654.75" y="-176.45" font-family="Helvetica,sans-Serif" font-size="14.00">education&#45;num ≤ 10.5</text>
<text text-anchor="start" x="1673.12" y="-160.7" font-family="Helvetica,sans-Serif" font-size="14.00">entropy = 0.995</text>
<text text-anchor="start" x="1672" y="-144.95" font-family="Helvetica,sans-Serif" font-size="14.00">samples = 1539</text>
<text text-anchor="start" x="1666.38" y="-129.2" font-family="Helvetica,sans-Serif" font-size="14.00">value = [836, 703]</text>
<text text-anchor="start" x="1639" y="-113.45" font-family="Helvetica,sans-Serif" font-size="14.00">class = Lower or Equal 50k</text>
</g>
<!-- 17&#45;&gt;21 -->
<g id="edge21" class="edge">
<title>17&#45;&gt;21</title>
<path fill="none" stroke="black" d="M1656.28,-229.55C1663.38,-220.9 1670.91,-211.7 1678.23,-202.78"/>
<polygon fill="black" stroke="black" points="1680.86,-205.09 1684.49,-195.14 1675.45,-200.65 1680.86,-205.09"/>
</g>
<!-- 19 -->
<g id="node20" class="node">
<title>19</title>
<path fill="#e6843e" stroke="black" d="M1403.75,-71C1403.75,-71 1249,-71 1249,-71 1243,-71 1237,-65 1237,-59 1237,-59 1237,-12 1237,-12 1237,-6 1243,0 1249,0 1249,0 1403.75,0 1403.75,0 1409.75,0 1415.75,-6 1415.75,-12 1415.75,-12 1415.75,-59 1415.75,-59 1415.75,-65 1409.75,-71 1403.75,-71"/>
<text text-anchor="start" x="1279.12" y="-53.7" font-family="Helvetica,sans-Serif" font-size="14.00">entropy = 0.178</text>
<text text-anchor="start" x="1274.25" y="-37.95" font-family="Helvetica,sans-Serif" font-size="14.00">samples = 15300</text>
<text text-anchor="start" x="1264.88" y="-22.2" font-family="Helvetica,sans-Serif" font-size="14.00">value = [14890, 410]</text>
<text text-anchor="start" x="1245" y="-6.45" font-family="Helvetica,sans-Serif" font-size="14.00">class = Lower or Equal 50k</text>
</g>
<!-- 18&#45;&gt;19 -->
<g id="edge19" class="edge">
<title>18&#45;&gt;19</title>
<path fill="none" stroke="black" d="M1448.62,-106.54C1431.69,-96.84 1413.77,-86.58 1397.03,-76.98"/>
<polygon fill="black" stroke="black" points="1399.05,-74.1 1388.63,-72.17 1395.57,-80.18 1399.05,-74.1"/>
</g>
<!-- 20 -->
<g id="node21" class="node">
<title>20</title>
<path fill="#ea975c" stroke="black" d="M1600.75,-71C1600.75,-71 1446,-71 1446,-71 1440,-71 1434,-65 1434,-59 1434,-59 1434,-12 1434,-12 1434,-6 1440,0 1446,0 1446,0 1600.75,0 1600.75,0 1606.75,0 1612.75,-6 1612.75,-12 1612.75,-12 1612.75,-59 1612.75,-59 1612.75,-65 1606.75,-71 1600.75,-71"/>
<text text-anchor="start" x="1476.12" y="-53.7" font-family="Helvetica,sans-Serif" font-size="14.00">entropy = 0.606</text>
<text text-anchor="start" x="1475" y="-37.95" font-family="Helvetica,sans-Serif" font-size="14.00">samples = 3880</text>
<text text-anchor="start" x="1465.62" y="-22.2" font-family="Helvetica,sans-Serif" font-size="14.00">value = [3304, 576]</text>
<text text-anchor="start" x="1442" y="-6.45" font-family="Helvetica,sans-Serif" font-size="14.00">class = Lower or Equal 50k</text>
</g>
<!-- 18&#45;&gt;20 -->
<g id="edge20" class="edge">
<title>18&#45;&gt;20</title>
<path fill="none" stroke="black" d="M1523.38,-106.7C1523.38,-98.82 1523.38,-90.55 1523.38,-82.57"/>
<polygon fill="black" stroke="black" points="1526.88,-82.67 1523.38,-72.67 1519.88,-82.67 1526.88,-82.67"/>
</g>
<!-- 22 -->
<g id="node23" class="node">
<title>22</title>
<path fill="#f1ba92" stroke="black" d="M1797.75,-71C1797.75,-71 1643,-71 1643,-71 1637,-71 1631,-65 1631,-59 1631,-59 1631,-12 1631,-12 1631,-6 1637,0 1643,0 1643,0 1797.75,0 1797.75,0 1803.75,0 1809.75,-6 1809.75,-12 1809.75,-12 1809.75,-59 1809.75,-59 1809.75,-65 1803.75,-71 1797.75,-71"/>
<text text-anchor="start" x="1673.12" y="-53.7" font-family="Helvetica,sans-Serif" font-size="14.00">entropy = 0.893</text>
<text text-anchor="start" x="1675.75" y="-37.95" font-family="Helvetica,sans-Serif" font-size="14.00">samples = 935</text>
<text text-anchor="start" x="1666.38" y="-22.2" font-family="Helvetica,sans-Serif" font-size="14.00">value = [645, 290]</text>
<text text-anchor="start" x="1639" y="-6.45" font-family="Helvetica,sans-Serif" font-size="14.00">class = Lower or Equal 50k</text>
</g>
<!-- 21&#45;&gt;22 -->
<g id="edge22" class="edge">
<title>21&#45;&gt;22</title>
<path fill="none" stroke="black" d="M1720.38,-106.7C1720.38,-98.82 1720.38,-90.55 1720.38,-82.57"/>
<polygon fill="black" stroke="black" points="1723.88,-82.67 1720.38,-72.67 1716.88,-82.67 1723.88,-82.67"/>
</g>
<!-- 23 -->
<g id="node24" class="node">
<title>23</title>
<path fill="#95caf1" stroke="black" d="M1939.38,-71C1939.38,-71 1839.38,-71 1839.38,-71 1833.38,-71 1827.38,-65 1827.38,-59 1827.38,-59 1827.38,-12 1827.38,-12 1827.38,-6 1833.38,0 1839.38,0 1839.38,0 1939.38,0 1939.38,0 1945.38,0 1951.38,-6 1951.38,-12 1951.38,-12 1951.38,-59 1951.38,-59 1951.38,-65 1945.38,-71 1939.38,-71"/>
<text text-anchor="start" x="1849.62" y="-53.7" font-family="Helvetica,sans-Serif" font-size="14.00">entropy = 0.9</text>
<text text-anchor="start" x="1844.75" y="-37.95" font-family="Helvetica,sans-Serif" font-size="14.00">samples = 604</text>
<text text-anchor="start" x="1835.38" y="-22.2" font-family="Helvetica,sans-Serif" font-size="14.00">value = [191, 413]</text>
<text text-anchor="start" x="1838.38" y="-6.45" font-family="Helvetica,sans-Serif" font-size="14.00">class = Over 50k</text>
</g>
<!-- 21&#45;&gt;23 -->
<g id="edge23" class="edge">
<title>21&#45;&gt;23</title>
<path fill="none" stroke="black" d="M1784.27,-106.7C1798.61,-97.13 1813.79,-86.99 1828.02,-77.48"/>
<polygon fill="black" stroke="black" points="1829.59,-80.64 1835.96,-72.18 1825.7,-74.82 1829.59,-80.64"/>
</g>
<!-- 25 -->
<g id="node26" class="node">
<title>25</title>
<path fill="#54abe9" stroke="black" d="M2135.75,-193.75C2135.75,-193.75 2041,-193.75 2041,-193.75 2035,-193.75 2029,-187.75 2029,-181.75 2029,-181.75 2029,-119 2029,-119 2029,-113 2035,-107 2041,-107 2041,-107 2135.75,-107 2135.75,-107 2141.75,-107 2147.75,-113 2147.75,-119 2147.75,-119 2147.75,-181.75 2147.75,-181.75 2147.75,-187.75 2141.75,-193.75 2135.75,-193.75"/>
<text text-anchor="start" x="2037" y="-176.45" font-family="Helvetica,sans-Serif" font-size="14.00">relationship ≤ 4.5</text>
<text text-anchor="start" x="2041.12" y="-160.7" font-family="Helvetica,sans-Serif" font-size="14.00">entropy = 0.535</text>
<text text-anchor="start" x="2047.5" y="-144.95" font-family="Helvetica,sans-Serif" font-size="14.00">samples = 82</text>
<text text-anchor="start" x="2041.88" y="-129.2" font-family="Helvetica,sans-Serif" font-size="14.00">value = [10, 72]</text>
<text text-anchor="start" x="2037.38" y="-113.45" font-family="Helvetica,sans-Serif" font-size="14.00">class = Over 50k</text>
</g>
<!-- 24&#45;&gt;25 -->
<g id="edge25" class="edge">
<title>24&#45;&gt;25</title>
<path fill="none" stroke="black" d="M2088.38,-229.55C2088.38,-221.71 2088.38,-213.42 2088.38,-205.29"/>
<polygon fill="black" stroke="black" points="2091.88,-205.48 2088.38,-195.48 2084.88,-205.48 2091.88,-205.48"/>
</g>
<!-- 28 -->
<g id="node29" class="node">
<title>28</title>
<path fill="#3c9fe5" stroke="black" d="M2362,-193.75C2362,-193.75 2238.75,-193.75 2238.75,-193.75 2232.75,-193.75 2226.75,-187.75 2226.75,-181.75 2226.75,-181.75 2226.75,-119 2226.75,-119 2226.75,-113 2232.75,-107 2238.75,-107 2238.75,-107 2362,-107 2362,-107 2368,-107 2374,-113 2374,-119 2374,-119 2374,-181.75 2374,-181.75 2374,-187.75 2368,-193.75 2362,-193.75"/>
<text text-anchor="start" x="2234.75" y="-176.45" font-family="Helvetica,sans-Serif" font-size="14.00">education&#45;num ≤ 10.5</text>
<text text-anchor="start" x="2253.5" y="-160.7" font-family="Helvetica,sans-Serif" font-size="14.00">entropy = 0.114</text>
<text text-anchor="start" x="2255.75" y="-144.95" font-family="Helvetica,sans-Serif" font-size="14.00">samples = 395</text>
<text text-anchor="start" x="2253.88" y="-129.2" font-family="Helvetica,sans-Serif" font-size="14.00">value = [6, 389]</text>
<text text-anchor="start" x="2249.38" y="-113.45" font-family="Helvetica,sans-Serif" font-size="14.00">class = Over 50k</text>
</g>
<!-- 24&#45;&gt;28 -->
<g id="edge28" class="edge">
<title>24&#45;&gt;28</title>
<path fill="none" stroke="black" d="M2159.26,-231.75C2177.61,-221.3 2197.54,-209.95 2216.49,-199.16"/>
<polygon fill="black" stroke="black" points="2218.02,-202.31 2224.97,-194.32 2214.55,-196.23 2218.02,-202.31"/>
</g>
<!-- 26 -->
<g id="node27" class="node">
<title>26</title>
<path fill="#bddef6" stroke="black" d="M2075.38,-71C2075.38,-71 1981.38,-71 1981.38,-71 1975.38,-71 1969.38,-65 1969.38,-59 1969.38,-59 1969.38,-12 1969.38,-12 1969.38,-6 1975.38,0 1981.38,0 1981.38,0 2075.38,0 2075.38,0 2081.38,0 2087.38,-6 2087.38,-12 2087.38,-12 2087.38,-59 2087.38,-59 2087.38,-65 2081.38,-71 2075.38,-71"/>
<text text-anchor="start" x="1981.12" y="-53.7" font-family="Helvetica,sans-Serif" font-size="14.00">entropy = 0.971</text>
<text text-anchor="start" x="1987.5" y="-37.95" font-family="Helvetica,sans-Serif" font-size="14.00">samples = 25</text>
<text text-anchor="start" x="1981.88" y="-22.2" font-family="Helvetica,sans-Serif" font-size="14.00">value = [10, 15]</text>
<text text-anchor="start" x="1977.38" y="-6.45" font-family="Helvetica,sans-Serif" font-size="14.00">class = Over 50k</text>
</g>
<!-- 25&#45;&gt;26 -->
<g id="edge26" class="edge">
<title>25&#45;&gt;26</title>
<path fill="none" stroke="black" d="M2065.69,-106.7C2061.26,-98.36 2056.59,-89.59 2052.12,-81.18"/>
<polygon fill="black" stroke="black" points="2055.29,-79.68 2047.51,-72.49 2049.11,-82.97 2055.29,-79.68"/>
</g>
<!-- 27 -->
<g id="node28" class="node">
<title>27</title>
<path fill="#399de5" stroke="black" d="M2211.38,-71C2211.38,-71 2117.38,-71 2117.38,-71 2111.38,-71 2105.38,-65 2105.38,-59 2105.38,-59 2105.38,-12 2105.38,-12 2105.38,-6 2111.38,0 2117.38,0 2117.38,0 2211.38,0 2211.38,0 2217.38,0 2223.38,-6 2223.38,-12 2223.38,-12 2223.38,-59 2223.38,-59 2223.38,-65 2217.38,-71 2211.38,-71"/>
<text text-anchor="start" x="2124.62" y="-53.7" font-family="Helvetica,sans-Serif" font-size="14.00">entropy = 0.0</text>
<text text-anchor="start" x="2123.5" y="-37.95" font-family="Helvetica,sans-Serif" font-size="14.00">samples = 57</text>
<text text-anchor="start" x="2121.62" y="-22.2" font-family="Helvetica,sans-Serif" font-size="14.00">value = [0, 57]</text>
<text text-anchor="start" x="2113.38" y="-6.45" font-family="Helvetica,sans-Serif" font-size="14.00">class = Over 50k</text>
</g>
<!-- 25&#45;&gt;27 -->
<g id="edge27" class="edge">
<title>25&#45;&gt;27</title>
<path fill="none" stroke="black" d="M2117.11,-106.7C2122.85,-98.17 2128.89,-89.2 2134.67,-80.62"/>
<polygon fill="black" stroke="black" points="2137.51,-82.66 2140.19,-72.41 2131.71,-78.75 2137.51,-82.66"/>
</g>
<!-- 29 -->
<g id="node30" class="node">
<title>29</title>
<path fill="#43a2e6" stroke="black" d="M2347.38,-71C2347.38,-71 2253.38,-71 2253.38,-71 2247.38,-71 2241.38,-65 2241.38,-59 2241.38,-59 2241.38,-12 2241.38,-12 2241.38,-6 2247.38,0 2253.38,0 2253.38,0 2347.38,0 2347.38,0 2353.38,0 2359.38,-6 2359.38,-12 2359.38,-12 2359.38,-59 2359.38,-59 2359.38,-65 2353.38,-71 2347.38,-71"/>
<text text-anchor="start" x="2256.88" y="-53.7" font-family="Helvetica,sans-Serif" font-size="14.00">entropy = 0.28</text>
<text text-anchor="start" x="2255.75" y="-37.95" font-family="Helvetica,sans-Serif" font-size="14.00">samples = 124</text>
<text text-anchor="start" x="2254.25" y="-22.2" font-family="Helvetica,sans-Serif" font-size="14.00">value = [6, 118]</text>
<text text-anchor="start" x="2249.38" y="-6.45" font-family="Helvetica,sans-Serif" font-size="14.00">class = Over 50k</text>
</g>
<!-- 28&#45;&gt;29 -->
<g id="edge29" class="edge">
<title>28&#45;&gt;29</title>
<path fill="none" stroke="black" d="M2300.38,-106.7C2300.38,-98.82 2300.38,-90.55 2300.38,-82.57"/>
<polygon fill="black" stroke="black" points="2303.88,-82.67 2300.38,-72.67 2296.88,-82.67 2303.88,-82.67"/>
</g>
<!-- 30 -->
<g id="node31" class="node">
<title>30</title>
<path fill="#399de5" stroke="black" d="M2483.38,-71C2483.38,-71 2389.38,-71 2389.38,-71 2383.38,-71 2377.38,-65 2377.38,-59 2377.38,-59 2377.38,-12 2377.38,-12 2377.38,-6 2383.38,0 2389.38,0 2389.38,0 2483.38,0 2483.38,0 2489.38,0 2495.38,-6 2495.38,-12 2495.38,-12 2495.38,-59 2495.38,-59 2495.38,-65 2489.38,-71 2483.38,-71"/>
<text text-anchor="start" x="2396.62" y="-53.7" font-family="Helvetica,sans-Serif" font-size="14.00">entropy = 0.0</text>
<text text-anchor="start" x="2391.75" y="-37.95" font-family="Helvetica,sans-Serif" font-size="14.00">samples = 271</text>
<text text-anchor="start" x="2389.88" y="-22.2" font-family="Helvetica,sans-Serif" font-size="14.00">value = [0, 271]</text>
<text text-anchor="start" x="2385.38" y="-6.45" font-family="Helvetica,sans-Serif" font-size="14.00">class = Over 50k</text>
</g>
<!-- 28&#45;&gt;30 -->
<g id="edge30" class="edge">
<title>28&#45;&gt;30</title>
<path fill="none" stroke="black" d="M2351.79,-106.7C2362.95,-97.44 2374.74,-87.65 2385.87,-78.42"/>
<polygon fill="black" stroke="black" points="2387.99,-81.2 2393.45,-72.12 2383.52,-75.82 2387.99,-81.2"/>
</g>
</g>
</svg>
