<?xml version="1.0" encoding="UTF-8" standalone="no"?>
<!DOCTYPE svg PUBLIC "-//W3C//DTD SVG 1.1//EN"
 "http://www.w3.org/Graphics/SVG/1.1/DTD/svg11.dtd">
<!-- Generated by graphviz version 12.2.0 (20241103.1931)
 -->
<!-- Title: Tree Pages: 1 -->
<svg width="686pt" height="325pt"
 viewBox="0.00 0.00 686.38 324.50" xmlns="http://www.w3.org/2000/svg" xmlns:xlink="http://www.w3.org/1999/xlink">
<g id="graph0" class="graph" transform="scale(1 1) rotate(0) translate(4 320.5)">
<title>Tree</title>
<polygon fill="white" stroke="none" points="-4,4 -4,-320.5 682.38,-320.5 682.38,4 -4,4"/>
<!-- 0 -->
<g id="node1" class="node">
<title>0</title>
<path fill="#eeab7a" stroke="black" d="M436.75,-316.5C436.75,-316.5 282,-316.5 282,-316.5 276,-316.5 270,-310.5 270,-304.5 270,-304.5 270,-241.75 270,-241.75 270,-235.75 276,-229.75 282,-229.75 282,-229.75 436.75,-229.75 436.75,-229.75 442.75,-229.75 448.75,-235.75 448.75,-241.75 448.75,-241.75 448.75,-304.5 448.75,-304.5 448.75,-310.5 442.75,-316.5 436.75,-316.5"/>
<text text-anchor="start" x="308" y="-299.2" font-family="Helvetica,sans-Serif" font-size="14.00">relationship ≤ 0.5</text>
<text text-anchor="start" x="312.12" y="-283.45" font-family="Helvetica,sans-Serif" font-size="14.00">entropy = 0.808</text>
<text text-anchor="start" x="307.25" y="-267.7" font-family="Helvetica,sans-Serif" font-size="14.00">samples = 36140</text>
<text text-anchor="start" x="294.12" y="-251.95" font-family="Helvetica,sans-Serif" font-size="14.00">value = [27178, 8962]</text>
<text text-anchor="start" x="278" y="-236.2" font-family="Helvetica,sans-Serif" font-size="14.00">class = Lower or Equal 50k</text>
</g>
<!-- 1 -->
<g id="node2" class="node">
<title>1</title>
<path fill="#fbebdf" stroke="black" d="M338.75,-193.75C338.75,-193.75 184,-193.75 184,-193.75 178,-193.75 172,-187.75 172,-181.75 172,-181.75 172,-119 172,-119 172,-113 178,-107 184,-107 184,-107 338.75,-107 338.75,-107 344.75,-107 350.75,-113 350.75,-119 350.75,-119 350.75,-181.75 350.75,-181.75 350.75,-187.75 344.75,-193.75 338.75,-193.75"/>
<text text-anchor="start" x="195.75" y="-176.45" font-family="Helvetica,sans-Serif" font-size="14.00">education&#45;num ≤ 12.5</text>
<text text-anchor="start" x="214.12" y="-160.7" font-family="Helvetica,sans-Serif" font-size="14.00">entropy = 0.994</text>
<text text-anchor="start" x="209.25" y="-144.95" font-family="Helvetica,sans-Serif" font-size="14.00">samples = 14944</text>
<text text-anchor="start" x="188.62" y="-129.2" font-family="Helvetica,sans-Serif" font-size="14.00">value = [8132.0, 6812.0]</text>
<text text-anchor="start" x="180" y="-113.45" font-family="Helvetica,sans-Serif" font-size="14.00">class = Lower or Equal 50k</text>
</g>
<!-- 0&#45;&gt;1 -->
<g id="edge1" class="edge">
<title>0&#45;&gt;1</title>
<path fill="none" stroke="black" d="M324.82,-229.55C317.8,-220.9 310.34,-211.7 303.09,-202.78"/>
<polygon fill="black" stroke="black" points="305.92,-200.7 296.9,-195.14 300.48,-205.11 305.92,-200.7"/>
<text text-anchor="middle" x="293.36" y="-213.41" font-family="Helvetica,sans-Serif" font-size="14.00">True</text>
</g>
<!-- 4 -->
<g id="node5" class="node">
<title>4</title>
<path fill="#e88f4f" stroke="black" d="M535.75,-193.75C535.75,-193.75 381,-193.75 381,-193.75 375,-193.75 369,-187.75 369,-181.75 369,-181.75 369,-119 369,-119 369,-113 375,-107 381,-107 381,-107 535.75,-107 535.75,-107 541.75,-107 547.75,-113 547.75,-119 547.75,-119 547.75,-181.75 547.75,-181.75 547.75,-187.75 541.75,-193.75 535.75,-193.75"/>
<text text-anchor="start" x="395.75" y="-176.45" font-family="Helvetica,sans-Serif" font-size="14.00">capital&#45;gain ≤ 7055.5</text>
<text text-anchor="start" x="411.12" y="-160.7" font-family="Helvetica,sans-Serif" font-size="14.00">entropy = 0.474</text>
<text text-anchor="start" x="406.62" y="-144.95" font-family="Helvetica,sans-Serif" font-size="14.00">samples = 21196</text>
<text text-anchor="start" x="393.12" y="-129.2" font-family="Helvetica,sans-Serif" font-size="14.00">value = [19046, 2150]</text>
<text text-anchor="start" x="377" y="-113.45" font-family="Helvetica,sans-Serif" font-size="14.00">class = Lower or Equal 50k</text>
</g>
<!-- 0&#45;&gt;4 -->
<g id="edge4" class="edge">
<title>0&#45;&gt;4</title>
<path fill="none" stroke="black" d="M394.28,-229.55C401.38,-220.9 408.91,-211.7 416.23,-202.78"/>
<polygon fill="black" stroke="black" points="418.86,-205.09 422.49,-195.14 413.45,-200.65 418.86,-205.09"/>
<text text-anchor="middle" x="425.92" y="-213.42" font-family="Helvetica,sans-Serif" font-size="14.00">False</text>
</g>
<!-- 2 -->
<g id="node3" class="node">
<title>2</title>
<path fill="#f2c19e" stroke="black" d="M166.75,-71C166.75,-71 12,-71 12,-71 6,-71 0,-65 0,-59 0,-59 0,-12 0,-12 0,-6 6,0 12,0 12,0 166.75,0 166.75,0 172.75,0 178.75,-6 178.75,-12 178.75,-12 178.75,-59 178.75,-59 178.75,-65 172.75,-71 166.75,-71"/>
<text text-anchor="start" x="42.12" y="-53.7" font-family="Helvetica,sans-Serif" font-size="14.00">entropy = 0.923</text>
<text text-anchor="start" x="37.25" y="-37.95" font-family="Helvetica,sans-Serif" font-size="14.00">samples = 10442</text>
<text text-anchor="start" x="16.62" y="-22.2" font-family="Helvetica,sans-Serif" font-size="14.00">value = [6914.0, 3528.0]</text>
<text text-anchor="start" x="8" y="-6.45" font-family="Helvetica,sans-Serif" font-size="14.00">class = Lower or Equal 50k</text>
</g>
<!-- 1&#45;&gt;2 -->
<g id="edge2" class="edge">
<title>1&#45;&gt;2</title>
<path fill="none" stroke="black" d="M196.35,-106.7C181.76,-97.13 166.31,-86.99 151.82,-77.48"/>
<polygon fill="black" stroke="black" points="154.01,-74.73 143.72,-72.17 150.16,-80.58 154.01,-74.73"/>
</g>
<!-- 3 -->
<g id="node4" class="node">
<title>3</title>
<path fill="#82c1ef" stroke="black" d="M323.88,-71C323.88,-71 208.88,-71 208.88,-71 202.88,-71 196.88,-65 196.88,-59 196.88,-59 196.88,-12 196.88,-12 196.88,-6 202.88,0 208.88,0 208.88,0 323.88,0 323.88,0 329.88,0 335.88,-6 335.88,-12 335.88,-12 335.88,-59 335.88,-59 335.88,-65 329.88,-71 323.88,-71"/>
<text text-anchor="start" x="219.12" y="-53.7" font-family="Helvetica,sans-Serif" font-size="14.00">entropy = 0.842</text>
<text text-anchor="start" x="218" y="-37.95" font-family="Helvetica,sans-Serif" font-size="14.00">samples = 4502</text>
<text text-anchor="start" x="204.88" y="-22.2" font-family="Helvetica,sans-Serif" font-size="14.00">value = [1218, 3284]</text>
<text text-anchor="start" x="215.38" y="-6.45" font-family="Helvetica,sans-Serif" font-size="14.00">class = Over 50k</text>
</g>
<!-- 1&#45;&gt;3 -->
<g id="edge3" class="edge">
<title>1&#45;&gt;3</title>
<path fill="none" stroke="black" d="M263.27,-106.7C263.61,-98.82 263.98,-90.55 264.33,-82.57"/>
<polygon fill="black" stroke="black" points="267.83,-82.81 264.77,-72.67 260.83,-82.5 267.83,-82.81"/>
</g>
<!-- 5 -->
<g id="node6" class="node">
<title>5</title>
<path fill="#e78c4b" stroke="black" d="M530.75,-71C530.75,-71 376,-71 376,-71 370,-71 364,-65 364,-59 364,-59 364,-12 364,-12 364,-6 370,0 376,0 376,0 530.75,0 530.75,0 536.75,0 542.75,-6 542.75,-12 542.75,-12 542.75,-59 542.75,-59 542.75,-65 536.75,-71 530.75,-71"/>
<text text-anchor="start" x="406.12" y="-53.7" font-family="Helvetica,sans-Serif" font-size="14.00">entropy = 0.408</text>
<text text-anchor="start" x="401.25" y="-37.95" font-family="Helvetica,sans-Serif" font-size="14.00">samples = 20719</text>
<text text-anchor="start" x="388.12" y="-22.2" font-family="Helvetica,sans-Serif" font-size="14.00">value = [19030, 1689]</text>
<text text-anchor="start" x="372" y="-6.45" font-family="Helvetica,sans-Serif" font-size="14.00">class = Lower or Equal 50k</text>
</g>
<!-- 4&#45;&gt;5 -->
<g id="edge5" class="edge">
<title>4&#45;&gt;5</title>
<path fill="none" stroke="black" d="M456.48,-106.7C456.14,-98.82 455.77,-90.55 455.42,-82.57"/>
<polygon fill="black" stroke="black" points="458.92,-82.5 454.98,-72.67 451.92,-82.81 458.92,-82.5"/>
</g>
<!-- 6 -->
<g id="node7" class="node">
<title>6</title>
<path fill="#40a0e6" stroke="black" d="M666.38,-71C666.38,-71 572.38,-71 572.38,-71 566.38,-71 560.38,-65 560.38,-59 560.38,-59 560.38,-12 560.38,-12 560.38,-6 566.38,0 572.38,0 572.38,0 666.38,0 666.38,0 672.38,0 678.38,-6 678.38,-12 678.38,-12 678.38,-59 678.38,-59 678.38,-65 672.38,-71 666.38,-71"/>
<text text-anchor="start" x="572.12" y="-53.7" font-family="Helvetica,sans-Serif" font-size="14.00">entropy = 0.212</text>
<text text-anchor="start" x="574.75" y="-37.95" font-family="Helvetica,sans-Serif" font-size="14.00">samples = 477</text>
<text text-anchor="start" x="569.12" y="-22.2" font-family="Helvetica,sans-Serif" font-size="14.00">value = [16, 461]</text>
<text text-anchor="start" x="568.38" y="-6.45" font-family="Helvetica,sans-Serif" font-size="14.00">class = Over 50k</text>
</g>
<!-- 4&#45;&gt;6 -->
<g id="edge6" class="edge">
<title>4&#45;&gt;6</title>
<path fill="none" stroke="black" d="M519.24,-106.7C532.77,-97.22 547.09,-87.18 560.54,-77.75"/>
<polygon fill="black" stroke="black" points="562.27,-80.81 568.45,-72.21 558.25,-75.08 562.27,-80.81"/>
</g>
</g>
</svg>
